<?xml version="1.0" encoding="utf-8"?>
<!-- Generator: Adobe Illustrator 26.5.0, SVG Export Plug-In . SVG Version: 6.00 Build 0)  -->
<svg version="1.1" id="Layer_1" xmlns="http://www.w3.org/2000/svg" xmlns:xlink="http://www.w3.org/1999/xlink" x="0px" y="0px"
	 viewBox="0 0 512 512" style="enable-background:new 0 0 512 512;" xml:space="preserve">
<style type="text/css">
	.st0{fill:#0ACF83;}
	.st1{fill:#A259FF;}
	.st2{fill:#F24E1E;}
	.st3{fill:#FF7262;}
	.st4{fill:#1ABCFE;}
</style>
<g>
	<path class="st0" d="M170.67,512c47.1,0,85.33-38.22,85.33-85.33v-85.33h-85.33c-47.1,0-85.33,38.22-85.33,85.33
		S123.57,512,170.67,512z"/>
	<path class="st1" d="M85.33,256c0-47.1,38.22-85.33,85.33-85.33H256v170.67h-85.33C123.57,341.33,85.33,303.1,85.33,256z"/>
	<path class="st2" d="M85.33,85.33C85.33,38.22,123.56,0,170.66,0H256v170.67h-85.33C123.57,170.67,85.33,132.43,85.33,85.33z"/>
	<path class="st3" d="M256,0h85.33c47.1,0,85.33,38.22,85.33,85.33s-38.22,85.33-85.33,85.33H256V0z"/>
	
		<ellipse transform="matrix(0.7071 -0.7071 0.7071 0.7071 -81.0499 316.3362)" class="st4" cx="341.33" cy="256" rx="85.33" ry="85.33"/>
</g>
</svg>
